<svg width="427" height="84" viewBox="0 0 427 84" fill="none" xmlns="http://www.w3.org/2000/svg">
<path d="M0 0.593548C3.51389 0.593548 7.02778 0.593548 10.6481 0.593548C11.5364 2.86619 12.4244 5.1389 13.3121 7.41178C13.6386 8.248 13.9653 9.08419 14.292 9.92035C16.3569 15.2061 18.4132 20.495 20.4572 25.7889C20.8563 26.8218 21.2555 27.8548 21.6547 28.8878C22.2405 30.4037 22.8258 31.9199 23.4097 33.4367C23.9561 34.8562 24.5041 36.2751 25.0524 37.6939C25.2142 38.1156 25.3759 38.5372 25.5426 38.9717C26.349 41.0537 27.1989 43.0626 28.2407 45.038C29.3017 42.388 30.3565 39.7356 31.4055 37.0808C31.7631 36.1785 32.1224 35.2768 32.4834 34.3758C33.0027 33.0789 33.5158 31.7798 34.0278 30.48C34.1898 30.0791 34.3518 29.6783 34.5188 29.2652C35.8654 25.8164 35.9484 23.6637 34.4838 20.2475C34.316 19.8698 34.1482 19.4921 33.9753 19.103C33.7182 18.5072 33.7182 18.5072 33.4559 17.8993C32.9086 16.6329 32.3546 15.3695 31.7998 14.1063C31.2511 12.8476 30.7039 11.5883 30.1585 10.3281C29.8195 9.54597 29.4785 8.76469 29.1351 7.98447C28.9776 7.623 28.8202 7.26153 28.6579 6.8891C28.5212 6.57775 28.3845 6.2664 28.2436 5.94562C27.553 4.18832 26.986 2.38476 26.3889 0.593548C29.9028 0.593548 33.4167 0.593548 37.037 0.593548C38.412 4.10744 39.787 7.62133 41.2037 11.2417C42.5554 7.91111 42.5554 7.91111 43.9045 4.57948C44.0725 4.16706 44.2406 3.75465 44.4137 3.32973C44.6719 2.69331 44.6719 2.69331 44.9353 2.04404C45.3704 1.05651 45.3704 1.05651 45.8333 0.593548C46.5902 0.553269 47.3487 0.544006 48.1066 0.548337C48.5646 0.549829 49.0226 0.551321 49.4945 0.552858C49.9764 0.556737 50.4584 0.560616 50.9549 0.564613C51.6804 0.567746 51.6804 0.567746 52.4206 0.570942C53.6199 0.576419 54.8192 0.584438 56.0185 0.593548C55.1506 3.7225 54.08 6.66593 52.7561 9.62856C52.3996 10.4447 52.0433 11.2609 51.6873 12.0772C51.1314 13.3443 50.5733 14.6104 50.0106 15.8745C49.4631 17.1078 48.9244 18.3446 48.3869 19.5823C48.2167 19.9585 48.0465 20.3347 47.8711 20.7223C46.2387 24.5134 47.3308 27.038 48.7703 30.7241C48.9226 31.1199 49.075 31.5156 49.232 31.9233C49.553 32.7553 49.8753 33.5868 50.1987 34.4178C50.6955 35.6946 51.1881 36.9731 51.68 38.2518C51.9927 39.0606 52.3055 39.8692 52.6186 40.6778C52.8407 41.2536 52.8407 41.2536 53.0673 41.841C53.6352 43.567 53.6352 43.567 54.6296 45.038C55.5003 42.8092 56.3707 40.5803 57.2409 38.3514C57.5639 37.5241 57.887 36.6968 58.2101 35.8695C60.2603 30.6207 62.3048 25.3697 64.3405 20.1152C65.118 18.1088 65.8963 16.1028 66.6743 14.0966C67.1137 12.9629 67.5526 11.8291 67.9911 10.6951C68.6089 9.09734 69.2282 7.50019 69.8477 5.90315C70.0345 5.41888 70.2213 4.93461 70.4137 4.43567C70.5847 3.99581 70.7557 3.55596 70.9318 3.10277C71.0811 2.71693 71.2305 2.33109 71.3843 1.93355C71.7593 1.05651 71.7593 1.05651 72.2222 0.593548C72.979 0.553269 73.7376 0.544006 74.4954 0.548337C74.9535 0.549829 75.4115 0.551321 75.8834 0.552858C76.3653 0.556737 76.8472 0.560616 77.3438 0.564613C78.0693 0.567746 78.0693 0.567746 78.8095 0.570942C80.0088 0.576419 81.2081 0.584049 82.4074 0.593548C82.0852 2.88757 81.1752 4.88112 80.268 6.99184C80.0103 7.59897 80.0103 7.59897 79.7473 8.21836C79.3749 9.09495 79.0015 9.97112 78.6273 10.8469C77.8246 12.7254 77.0266 14.606 76.2284 16.4865C75.8145 17.4616 75.4002 18.4365 74.9858 19.4114C73.1291 23.7799 71.2917 28.1562 69.4614 32.5357C68.9521 33.7543 68.4424 34.9726 67.9325 36.1909C66.3148 40.057 64.6997 43.9242 63.0883 47.793C62.3246 49.6261 61.5599 51.4588 60.7951 53.2915C60.4314 54.1639 60.0681 55.0365 59.7054 55.9093C59.2022 57.12 58.6974 58.33 58.1923 59.5399C58.046 59.893 57.8998 60.2461 57.7491 60.6099C56.7997 62.8782 55.7497 65.0709 54.6296 67.2602C53.6928 66.3234 53.3909 65.7434 52.8924 64.5413C52.7376 64.1712 52.5828 63.8011 52.4233 63.4198C52.2574 63.0167 52.0915 62.6137 51.9206 62.1984C51.7457 61.7787 51.5708 61.359 51.3907 60.9266C50.8285 59.5761 50.2695 58.2243 49.7107 56.8725C49.345 55.992 48.979 55.1116 48.6129 54.2312C47.8883 52.4885 47.1642 50.7455 46.4405 49.0023C45.3881 46.4689 44.335 43.9357 43.2762 41.4048C43.0422 40.8418 43.0422 40.8418 42.8034 40.2675C42.1983 38.5972 42.1983 38.5972 41.2037 37.1676C40.1698 39.5948 39.1365 42.0222 38.1037 44.4498C37.7409 45.3023 37.378 46.1549 37.0149 47.0073C34.3853 53.1785 34.3853 53.1785 31.8124 59.3736C31.4941 60.1488 31.4941 60.1488 31.1693 60.9397C30.7875 61.8735 30.4084 62.8085 30.0322 63.7446C29.8666 64.1498 29.7009 64.555 29.5302 64.9725C29.3912 65.3177 29.2521 65.6629 29.1089 66.0186C28.7037 66.7972 28.7037 66.7972 27.7778 67.2602C23.6684 57.7179 19.5703 48.1719 15.5888 38.5753C12.5144 31.1656 9.39451 23.7754 6.26994 16.3868C5.92354 15.5674 5.57731 14.7479 5.23129 13.9284C4.36417 11.875 3.49396 9.82309 2.61841 7.77332C2.44539 7.36665 2.27238 6.95997 2.09412 6.54098C1.76517 5.7678 1.43495 4.99517 1.10327 4.22315C0 1.62395 0 1.62395 0 0.593548Z" fill="#040404"/>
<path d="M421.39 23.8936C424.965 27.2192 425.722 31.9328 426.052 36.6504C426.095 38.4838 426.093 40.3108 426.071 42.1445C426.072 42.7672 426.073 43.3899 426.075 44.0126C426.045 49.5367 425.636 54.8735 421.993 59.3067C417.718 63.3861 411.703 63.6399 406.134 63.6434C405.656 63.649 405.177 63.6547 404.684 63.6605C399.664 63.67 396.316 62.8452 391.667 60.7788C391.667 68.2649 391.667 75.751 391.667 83.464C388.917 83.464 386.167 83.464 383.333 83.464C382.444 82.5743 382.809 81.2462 382.802 80.0619C382.803 79.6387 382.803 79.2155 382.803 78.7794C382.802 78.336 382.8 77.8925 382.798 77.4356C382.794 75.9596 382.793 74.4836 382.793 73.0075C382.791 71.9824 382.79 70.9573 382.788 69.9322C382.785 67.7767 382.784 65.6213 382.785 63.4659C382.785 60.7132 382.778 57.9605 382.77 55.2078C382.765 53.0869 382.764 50.9659 382.764 48.8449C382.764 47.8309 382.762 46.8169 382.758 45.8029C382.754 44.377 382.755 42.9512 382.758 41.5253C382.755 41.1115 382.753 40.6976 382.75 40.2712C382.775 35.1717 383.491 28.2583 387.162 24.362C395.566 17.8549 412.88 17.431 421.39 23.8936Z" fill="#050505"/>
<path d="M230.724 23.0799C234.25 26.1604 235.775 29.7963 236.574 34.3899C236.615 35.168 236.634 35.9473 236.636 36.7264C236.636 37.1555 236.637 37.5846 236.637 38.0267C236.636 38.4689 236.634 38.9111 236.632 39.3668C236.634 39.8161 236.635 40.2655 236.637 40.7285C236.637 41.1552 236.636 41.5819 236.636 42.0216C236.635 42.4117 236.634 42.8019 236.634 43.2038C236.574 44.1121 236.574 44.1121 236.111 44.5751C235.06 44.6188 234.008 44.6295 232.956 44.6276C232.462 44.6277 232.462 44.6277 231.957 44.6279C230.862 44.6275 229.768 44.6239 228.673 44.6203C227.916 44.6194 227.159 44.6188 226.402 44.6183C224.405 44.6165 222.409 44.612 220.413 44.6069C218.377 44.6021 216.341 44.6 214.306 44.5977C210.309 44.5927 206.312 44.5848 202.315 44.5751C202.449 45.4581 202.586 46.3405 202.725 47.2227C202.802 47.7141 202.878 48.2056 202.956 48.7119C203.473 51.2873 204.377 53.1542 206.279 54.9628C208.938 56.6674 211.906 56.2522 214.959 56.2649C215.526 56.2745 216.093 56.284 216.677 56.2938C217.225 56.2962 217.774 56.2986 218.339 56.3011C219.09 56.3076 219.09 56.3076 219.855 56.3142C222.038 56.0642 223.561 55.2879 225.087 53.7186C225.754 52.7066 226.213 51.8492 226.673 50.7455C226.885 50.2371 227.097 49.7286 227.315 49.2047C228.694 49.1923 230.073 49.1831 231.453 49.1758C231.846 49.1719 232.24 49.168 232.645 49.164C233.02 49.1625 233.394 49.161 233.78 49.1595C234.127 49.1571 234.473 49.1547 234.831 49.1522C235.648 49.2047 235.648 49.2047 236.111 49.6677C236.048 53.5821 234.787 57.0474 231.944 59.8348C225.438 64.887 214.942 64.3417 207.146 63.4155C202.742 62.6616 199.647 60.9951 196.615 57.7985C193.333 52.8156 193.359 46.8902 193.374 41.1029C193.366 40.5341 193.359 39.9654 193.351 39.3794C193.348 33.8016 194.072 28.5953 197.929 24.353C204.879 17.779 223.183 17.5514 230.724 23.0799Z" fill="#040404"/>
<path d="M177.946 23.0799C181.473 26.1604 182.998 29.7963 183.796 34.3899C183.837 35.168 183.857 35.9473 183.858 36.7264C183.858 37.1555 183.859 37.5846 183.86 38.0267C183.858 38.4689 183.856 38.9111 183.854 39.3668C183.856 39.8161 183.858 40.2655 183.86 40.7285C183.859 41.1552 183.858 41.5819 183.858 42.0216C183.857 42.4117 183.857 42.8019 183.856 43.2038C183.796 44.1121 183.796 44.1121 183.333 44.5751C182.282 44.6188 181.23 44.6295 180.178 44.6276C179.684 44.6277 179.684 44.6277 179.179 44.6279C178.085 44.6275 176.99 44.6239 175.895 44.6203C175.138 44.6194 174.381 44.6188 173.624 44.6183C171.628 44.6165 169.631 44.612 167.635 44.6069C165.599 44.6021 163.564 44.6 161.528 44.5977C157.531 44.5927 153.534 44.5848 149.537 44.5751C149.671 45.4581 149.808 46.3405 149.948 47.2227C150.024 47.7141 150.1 48.2056 150.179 48.7119C150.695 51.2873 151.6 53.1542 153.501 54.9628C156.16 56.6674 159.128 56.2522 162.182 56.2649C162.748 56.2745 163.315 56.284 163.899 56.2938C164.448 56.2962 164.996 56.2986 165.562 56.3011C166.312 56.3076 166.312 56.3076 167.078 56.3142C169.261 56.0642 170.783 55.2879 172.309 53.7186C172.976 52.7066 173.435 51.8492 173.895 50.7455C174.107 50.2371 174.319 49.7286 174.537 49.2047C175.916 49.1923 177.296 49.1831 178.675 49.1758C179.068 49.1719 179.462 49.168 179.867 49.164C180.242 49.1625 180.616 49.161 181.002 49.1595C181.349 49.1571 181.696 49.1547 182.053 49.1522C182.87 49.2047 182.87 49.2047 183.333 49.6677C183.27 53.5821 182.01 57.0474 179.167 59.8348C172.66 64.887 162.165 64.3417 154.368 63.4155C149.965 62.6616 146.87 60.9951 143.837 57.7985C140.555 52.8156 140.581 46.8902 140.596 41.1029C140.589 40.5341 140.581 39.9654 140.573 39.3794C140.571 33.8016 141.294 28.5953 145.152 24.353C152.102 17.779 170.406 17.5514 177.946 23.0799Z" fill="#040404"/>
<path d="M320.833 4.23582C321.206 4.23522 321.578 4.23462 321.962 4.23401C322.353 4.2358 322.745 4.23759 323.148 4.23943C323.735 4.23675 323.735 4.23675 324.334 4.23401C324.707 4.23461 325.079 4.2352 325.463 4.23582C325.807 4.23634 326.15 4.23686 326.505 4.2374C327.315 4.2973 327.315 4.2973 327.778 4.76027C327.831 6.0367 327.854 7.302 327.858 8.57892C327.861 8.97944 327.864 9.37995 327.867 9.79261C327.874 10.6659 327.88 11.5392 327.884 12.4125C327.892 13.7963 327.902 15.18 327.914 16.5638C327.947 20.4995 327.975 24.4353 327.998 28.371C328.013 30.7761 328.032 33.181 328.054 35.586C328.062 36.5016 328.067 37.4173 328.071 38.333C328.077 39.6184 328.088 40.9036 328.1 42.1889C328.101 42.5645 328.101 42.9401 328.101 43.327C328.154 47.5134 328.996 50.8269 332.002 53.9211C335.554 56.1602 339.392 56.3591 343.49 56.2938C343.956 56.2953 344.422 56.2968 344.903 56.2984C349.204 56.2679 354.318 56.108 357.87 53.3714C360.675 50.0872 361.248 46.4146 361.251 42.2415C361.257 41.6323 361.257 41.6323 361.263 41.0108C361.275 39.6779 361.281 38.3451 361.287 37.0121C361.294 36.0837 361.302 35.1553 361.31 34.2268C361.331 31.79 361.348 29.3532 361.362 26.9163C361.386 23.006 361.416 19.0958 361.449 15.1856C361.46 13.8178 361.468 12.4501 361.475 11.0823C361.481 10.2503 361.487 9.41829 361.494 8.58627C361.495 8.20341 361.496 7.82055 361.497 7.42609C361.521 4.81288 361.521 4.81288 362.037 4.2973C362.653 4.25176 363.271 4.23676 363.889 4.23582C364.261 4.23522 364.634 4.23462 365.017 4.23401C365.409 4.2358 365.8 4.23759 366.204 4.23943C366.791 4.23675 366.791 4.23675 367.39 4.23401C367.762 4.23461 368.135 4.2352 368.518 4.23582C368.862 4.23634 369.206 4.23686 369.56 4.2374C370.37 4.2973 370.37 4.2973 370.833 4.76027C370.882 5.99644 370.901 7.22069 370.901 8.45719C370.902 8.84496 370.904 9.23273 370.905 9.63224C370.91 10.9235 370.911 12.2147 370.911 13.5059C370.913 14.4043 370.914 15.3026 370.916 16.2009C370.919 18.0909 370.919 19.9809 370.919 21.8709C370.919 24.2789 370.925 26.6869 370.933 29.0949C370.939 30.9546 370.939 32.8142 370.939 34.6739C370.94 35.5606 370.942 36.4472 370.945 37.3338C371 52.2698 371 52.2698 366.336 58.0607C360.704 63.5731 351.944 63.7408 344.56 63.7012C344.234 63.7004 343.907 63.6996 343.571 63.6987C336.106 63.6662 329.845 63.0525 323.466 58.8401C317.973 53.0912 318.318 44.9076 318.367 37.5095C318.368 36.5636 318.369 35.6177 318.369 34.6718C318.371 32.7017 318.378 30.7317 318.388 28.7617C318.401 26.2313 318.406 23.701 318.409 21.1706C318.41 19.2234 318.415 17.2762 318.42 15.329C318.423 14.3951 318.425 13.4612 318.427 12.5274C318.43 11.2297 318.437 9.93216 318.444 8.63453C318.444 8.24665 318.445 7.85877 318.445 7.45914C318.47 4.23941 318.47 4.23941 320.833 4.23582Z" fill="#040404"/>
<path d="M91.7047 0.0673236C92.0741 0.069114 92.4435 0.0709043 92.8241 0.0727489C93.1935 0.0709586 93.5629 0.0691682 93.9435 0.0673236C96.7007 0.0720046 96.7007 0.0720047 97.2222 0.593582C97.2653 1.27578 97.2766 1.96002 97.2748 2.64357C97.2748 3.07917 97.2747 3.51478 97.2747 3.96358C97.2723 4.43715 97.2699 4.91071 97.2675 5.39863C97.2668 5.88095 97.2661 6.36326 97.2655 6.86019C97.2629 8.40752 97.2571 9.95482 97.2512 11.5021C97.2489 12.5483 97.2467 13.5945 97.2449 14.6407C97.2397 17.2114 97.232 19.7821 97.2222 22.3528C97.5296 22.2245 97.8369 22.0962 98.1536 21.964C98.7668 21.7125 98.7668 21.7125 99.3924 21.4559C99.9966 21.2061 99.9966 21.2061 100.613 20.9513C107.236 18.544 116.131 19.3589 122.667 21.6656C124.906 22.7594 126.442 23.9724 127.633 26.1723C127.816 26.4993 128 26.8264 128.188 27.1633C129.847 31.051 129.759 34.8389 129.736 39.0032C129.736 39.6715 129.736 40.3398 129.736 41.0081C129.735 42.4007 129.731 43.7933 129.725 45.186C129.717 46.9743 129.715 48.7625 129.716 50.5508C129.716 51.9269 129.713 53.303 129.71 54.6791C129.708 55.3391 129.707 55.999 129.707 56.6589C129.706 57.5764 129.701 58.4939 129.697 59.4115C129.695 59.9339 129.693 60.4562 129.692 60.9945C129.63 62.1677 129.63 62.1677 129.167 62.6306C127.85 62.6769 126.548 62.6949 125.232 62.6885C124.862 62.6903 124.493 62.6921 124.112 62.6939C121.355 62.6892 121.355 62.6892 120.833 62.1677C120.786 61.2783 120.771 60.3871 120.768 59.4965C120.763 58.6385 120.763 58.6385 120.758 57.7633C120.757 57.4554 120.756 57.1476 120.755 56.8304C120.752 55.8666 120.745 54.903 120.736 53.9393C120.712 51.1983 120.69 48.4574 120.682 45.7163C120.678 44.0406 120.664 42.3652 120.645 40.6897C120.639 40.0531 120.637 39.4165 120.638 38.78C120.643 34.7745 120.606 31.4568 117.679 28.4292C114.818 26.9578 112.011 26.8136 108.854 26.8089C108.266 26.7919 108.266 26.7919 107.666 26.7745C104.802 26.7613 102.453 27.3088 100 28.8343C97.9645 31.277 97.6331 33.2027 97.5975 36.3017C97.5898 36.8748 97.582 37.4478 97.574 38.0382C97.571 38.3429 97.5679 38.6475 97.5647 38.9614C97.5549 39.9166 97.5424 40.8717 97.5292 41.8268C97.4969 44.1971 97.4693 46.5675 97.4417 48.9379C97.4181 50.9444 97.3928 52.9508 97.3649 54.9573C97.3526 55.9003 97.3429 56.8433 97.3334 57.7864C97.3257 58.355 97.3179 58.9237 97.31 59.5096C97.3013 60.2645 97.3013 60.2645 97.2924 61.0347C97.2222 62.1677 97.2222 62.1677 96.7593 62.6306C95.4429 62.6769 94.1403 62.6949 92.8241 62.6885C92.4547 62.6903 92.0853 62.6921 91.7047 62.6939C88.9475 62.6892 88.9475 62.6892 88.4259 62.1677C88.3804 61.372 88.3675 60.5745 88.3672 59.7775C88.3659 59.2594 88.3645 58.7414 88.3632 58.2076C88.3641 57.6343 88.3651 57.0609 88.366 56.4701C88.3652 55.8702 88.3644 55.2704 88.3636 54.6523C88.3615 53.0023 88.3623 51.3523 88.3638 49.7024C88.3649 47.9793 88.3638 46.2562 88.3631 44.5332C88.3623 41.6391 88.3634 38.745 88.3656 35.8509C88.3681 32.5002 88.3673 29.1496 88.3647 25.799C88.3626 22.9272 88.3623 20.0555 88.3636 17.1838C88.3643 15.4664 88.3644 13.749 88.3628 12.0316C88.3613 10.1181 88.3635 8.20462 88.366 6.2911C88.3646 5.43104 88.3646 5.43104 88.3632 4.55361C88.3645 4.03555 88.3658 3.51749 88.3672 2.98373C88.3673 2.53069 88.3675 2.07765 88.3677 1.61088C88.4884 -0.497176 89.9209 0.070352 91.7047 0.0673236Z" fill="#030303"/>
<path d="M286.632 19.9223C287.213 19.9127 287.794 19.9032 288.393 19.8934C293.378 19.8727 298.887 20.2443 302.778 23.7417C305.167 26.8412 305.142 29.7143 305.093 33.464C302.648 33.464 300.204 33.464 297.685 33.464C297.459 32.5447 297.233 31.6254 297.007 30.7061C296.801 29.9191 296.554 29.1431 296.296 28.3714C293.509 26.8379 290.372 26.7551 287.269 26.7799C286.859 26.7707 286.449 26.7614 286.026 26.7519C283.127 26.754 280.728 27.2884 278.241 28.8343C277.386 30.5434 277.555 32.5242 277.778 34.3899C278.792 35.8241 279.357 36.1508 281.019 36.7047C282.212 36.7484 283.395 36.7681 284.588 36.7698C285.316 36.7783 286.044 36.7874 286.771 36.7969C287.91 36.8102 289.048 36.8204 290.187 36.8207C300.934 36.8359 300.934 36.8359 304.682 40.417C307.955 44.406 307.88 49.3912 307.407 54.2973C306.672 57.3521 305.091 59.519 302.481 61.296C297.868 63.9512 291.993 63.7149 286.834 63.7012C286.276 63.7087 285.717 63.7161 285.141 63.7238C280.416 63.7264 274.526 63.6294 270.833 60.3158C268.27 57.6947 267.55 55.3837 267.535 51.7799C267.554 51.0829 267.573 50.3858 267.593 49.6677C270.343 49.6677 273.093 49.6677 275.926 49.6677C276.231 50.8899 276.537 52.1121 276.852 53.3714C277.874 54.5726 278.683 55.4445 280.093 56.1491C282.173 56.2691 284.256 56.2746 286.339 56.2858C287.374 56.2937 288.408 56.314 289.442 56.3345C290.104 56.3392 290.766 56.3431 291.428 56.3463C292.028 56.353 292.628 56.3598 293.247 56.3667C295.194 56.1116 296.186 55.5466 297.685 54.2973C298.4 52.1541 298.442 50.0515 298.148 47.8158C296.925 46.1172 296.007 45.3912 293.981 45.038C292.857 44.9796 291.731 44.9447 290.605 44.9241C289.934 44.9088 289.263 44.8935 288.591 44.878C287.542 44.8561 286.493 44.8356 285.444 44.8173C274.436 44.6162 274.436 44.6162 270.833 41.3343C268.607 38.6805 268.305 35.8191 268.258 32.4802C268.251 32.1321 268.244 31.7841 268.237 31.4255C268.293 28.4213 269.215 26.0675 271.13 23.7472C275.759 19.9386 280.845 19.9456 286.632 19.9223Z" fill="#040404"/>
<path d="M413.033 27.7855C415.337 29.3635 416.393 31.2427 417.13 33.927C417.296 36.0289 417.282 38.1298 417.276 40.2372C417.274 41.24 417.285 42.2422 417.297 43.245C417.315 47.2826 417.091 50.6897 414.931 54.2395C412.001 57.0062 408.678 56.8259 404.861 56.7858C404.351 56.7911 403.841 56.7965 403.315 56.802C399.771 56.7893 397.417 56.4467 394.56 54.2395C391.823 50.7423 391.884 46.6305 391.898 42.3522C391.898 41.3664 391.879 40.3822 391.858 39.3966C391.82 34.9493 392.405 31.4443 395.544 28.1399C400.231 25.4619 408.243 25.3862 413.033 27.7855Z" fill="#FCFCFC"/>
<path d="M250.964 0.0673236C251.333 0.069114 251.703 0.0709043 252.083 0.0727489C252.453 0.0709586 252.822 0.0691682 253.203 0.0673236C255.96 0.0720046 255.96 0.0720047 256.482 0.593582C256.527 1.38924 256.54 2.18677 256.54 2.98373C256.542 3.50179 256.543 4.01985 256.544 4.55361C256.543 5.12698 256.542 5.70036 256.541 6.2911C256.542 6.89099 256.543 7.49088 256.544 8.10895C256.546 9.75893 256.545 11.4089 256.544 13.0589C256.543 14.7819 256.544 16.505 256.544 18.2281C256.545 21.1222 256.544 24.0163 256.542 26.9104C256.539 30.261 256.54 33.6116 256.543 36.9622C256.545 39.834 256.545 42.7057 256.544 45.5775C256.543 47.2948 256.543 49.0122 256.545 50.7296C256.546 52.6431 256.544 54.5566 256.541 56.4701C256.542 57.0435 256.543 57.6169 256.544 58.2076C256.542 58.9847 256.542 58.9847 256.54 59.7775C256.54 60.2305 256.54 60.6836 256.54 61.1504C256.482 62.1677 256.482 62.1677 256.019 62.6306C254.702 62.6769 253.4 62.6949 252.083 62.6885C251.714 62.6903 251.345 62.6921 250.964 62.6939C248.207 62.6892 248.207 62.6892 247.685 62.1677C247.64 61.372 247.627 60.5745 247.626 59.7775C247.625 59.2594 247.624 58.7414 247.622 58.2076C247.623 57.6343 247.624 57.0609 247.625 56.4701C247.625 55.8702 247.624 55.2704 247.623 54.6523C247.621 53.0023 247.622 51.3523 247.623 49.7024C247.624 47.9793 247.623 46.2562 247.622 44.5332C247.622 41.6391 247.623 38.745 247.625 35.8509C247.627 32.5002 247.627 29.1496 247.624 25.799C247.622 22.9272 247.622 20.0555 247.623 17.1838C247.624 15.4664 247.624 13.749 247.622 12.0316C247.621 10.1181 247.623 8.20462 247.625 6.2911C247.624 5.43104 247.624 5.43104 247.622 4.55361C247.624 4.03555 247.625 3.51749 247.626 2.98373C247.627 2.53069 247.627 2.07765 247.627 1.61088C247.748 -0.497176 249.18 0.070352 250.964 0.0673236Z" fill="#010101"/>
<path d="M224.074 28.3713C226.255 30.048 227.278 32.6743 227.778 35.3158C227.778 36.538 227.778 37.7602 227.778 39.0195C219.375 39.0195 210.972 39.0195 202.315 39.0195C202.315 35.336 202.549 32.2826 204.881 29.3135C209.453 25.0344 218.892 25.3795 224.074 28.3713Z" fill="#F7F7F7"/>
<path d="M171.296 28.3713C173.477 30.048 174.5 32.6743 175 35.3158C175 36.538 175 37.7602 175 39.0195C166.597 39.0195 158.194 39.0195 149.537 39.0195C149.537 35.336 149.772 32.2826 152.103 29.3135C156.675 25.0344 166.114 25.3795 171.296 28.3713Z" fill="#F7F7F7"/>
</svg>
